<svg t="1733111948607" class="icon" viewBox="0 0 1024 1024" version="1.1" xmlns="http://www.w3.org/2000/svg" p-id="2302" width="200" height="200"><path d="M124.56 518.033a366.091 366.091 0 1 0 732.181 0 366.091 366.091 0 1 0-732.182 0z" fill="#E9EAEB" p-id="2303"></path><path d="M692.878 440.725l-25.577-18.93a85.327 85.327 0 1 0-137.275-101.15l-25.72-18.857a117.19 117.19 0 1 1 188.572 138.937zM306.485 668.82a117.479 117.479 0 0 1-93.203-188.428 116.034 116.034 0 0 1 77.38-45.229l4.263 31.573a85.327 85.327 0 0 0-72.828 96.165 85.544 85.544 0 0 0 95.803 73.262l4.263 31.573a116.54 116.54 0 0 1-15.678 1.084z m274.478 134.746A117.045 117.045 0 0 1 479.45 745.26l27.528-15.967a85.689 85.689 0 0 0 156.638-21.241 84.244 84.244 0 0 0-8.454-64.592l27.6-15.606a117.117 117.117 0 0 1-43.35 159.962 117.117 117.117 0 0 1-58.45 15.75z" fill="#BCC0C4" p-id="2304"></path><path d="M179.613 199.627a120.73 120.73 0 1 0 241.46 0 120.73 120.73 0 1 0-241.46 0z" fill="#FFFFFF" p-id="2305"></path><path d="M300.343 336.252a136.625 136.625 0 1 1 136.625-136.625 136.77 136.77 0 0 1-136.625 136.625z m0-241.46a104.835 104.835 0 1 0 104.763 104.835A104.907 104.907 0 0 0 300.343 94.792z" fill="#2A5082" p-id="2306"></path><path d="M193.847 837.523a120.73 120.73 0 1 0 241.46 0 120.73 120.73 0 1 0-241.46 0z" fill="#FFFFFF" p-id="2307"></path><path d="M314.577 974.147a136.625 136.625 0 1 1 136.625-136.624 136.77 136.77 0 0 1-136.625 136.624z m0-241.46A104.835 104.835 0 1 0 419.05 837.524 104.907 104.907 0 0 0 314.577 732.76z" fill="#2A5082" p-id="2308"></path><path d="M753.207 534.217a120.73 120.73 0 1 0 241.46 0 120.73 120.73 0 1 0-241.46 0z" fill="#FFFFFF" p-id="2309"></path><path d="M874.226 670.842a136.625 136.625 0 1 1 136.624-136.625 136.77 136.77 0 0 1-136.624 136.625z m0-241.46A104.835 104.835 0 1 0 979.06 534.217a104.907 104.907 0 0 0-104.834-104.835z" fill="#2A5082" p-id="2310"></path><path d="M812.524 239.87a74.418 74.418 0 1 1 74.418-74.417 74.49 74.49 0 0 1-74.418 74.417z m0-117.045a42.628 42.628 0 1 0 42.628 42.628 42.628 42.628 0 0 0-42.628-42.628zM44.94 295.214h31.862v95.514H44.94z" fill="#BCC0C4" p-id="2311"></path><path d="M13.15 327.004h95.514v31.862H13.15zM299.62 788.609h31.862v95.515h-31.862z" fill="#BCC0C4" p-id="2312"></path><path d="M267.759 820.4h95.514v31.862H267.76z" fill="#BCC0C4" p-id="2313"></path><path d="M494.48 533.567a15.895 15.895 0 0 1-13.656-7.731L332.35 278.235a15.895 15.895 0 1 1 27.31-16.4l148.475 247.6a15.895 15.895 0 0 1-13.656 24.132z" fill="#2A5082" p-id="2314"></path><path d="M395.063 706.967a15.895 15.895 0 0 1-13.8-23.843l99.344-173.4a15.895 15.895 0 1 1 27.6 15.823l-99.344 173.4a15.895 15.895 0 0 1-13.8 8.02z" fill="#2A5082" p-id="2315"></path><path d="M794.75 545.343h-0.65l-300.27-11.849a15.895 15.895 0 1 1 1.227-31.79l300.272 11.85a15.895 15.895 0 0 1-0.578 31.79z" fill="#2A5082" p-id="2316"></path><path d="M343.549 519.189a148.33 148.33 0 1 0 296.659 0 148.33 148.33 0 1 0-296.659 0z" fill="#A3D4FF" p-id="2317"></path><path d="M491.878 683.413A164.224 164.224 0 1 1 656.103 519.19a164.441 164.441 0 0 1-164.225 164.224z m0-296.658a132.434 132.434 0 1 0 132.435 132.434 132.579 132.579 0 0 0-132.435-132.434zM244.855 157.288a17.918 17.918 0 1 0 35.836 0 17.918 17.918 0 1 0-35.836 0zM814.547 483.93a17.918 17.918 0 1 0 35.836 0 17.918 17.918 0 1 0-35.836 0z" fill="#2A5082" p-id="2318"></path><path d="M414.282 453.441a17.918 17.918 0 1 0 35.836 0 17.918 17.918 0 1 0-35.836 0z" fill="#2A5082" p-id="2319"></path></svg>