<?xml version="1.0" standalone="no"?><!DOCTYPE svg PUBLIC "-//W3C//DTD SVG 1.1//EN" "http://www.w3.org/Graphics/SVG/1.1/DTD/svg11.dtd"><svg t="1713060960529" class="icon" viewBox="0 0 1024 1024" version="1.1" xmlns="http://www.w3.org/2000/svg" p-id="2441" xmlns:xlink="http://www.w3.org/1999/xlink" width="200" height="200"><path d="M209.17051111 331.68931217l351.37467408 346.75132275c18.49340424 18.49340424 18.49340424 46.23351006 0 64.72691322l-127.14215132 124.83047619c-18.49340424 18.49340424-46.23351006 18.49340424-64.7269143 0l-351.374673-346.75132275c-18.49340424-18.49340424-18.49340424-46.23351006 0-64.72691322l127.14215132-124.83047619c16.18172803-18.49340424 46.23351006-18.49340424 64.72691322 0z" fill="#185ABD" p-id="2442"></path><path d="M1006.69855343 299.32585501L433.40303387 867.99802433c-18.49340424 18.49340424-46.23351006 18.49340424-64.7269143 0L241.53396825 743.16754814c-18.49340424-18.49340424-18.49340424-46.23351006 0-64.72691322L814.82948889 109.76846561c18.49340424-18.49340424 46.23351006-18.49340424 64.72691322 0l127.14215132 124.83047619c18.49340424 18.49340424 18.49340424 46.23351006 0 64.72691321z" fill="#41A5EE" p-id="2443"></path></svg>