<?xml version="1.0" standalone="no"?><!DOCTYPE svg PUBLIC "-//W3C//DTD SVG 1.1//EN" "http://www.w3.org/Graphics/SVG/1.1/DTD/svg11.dtd"><svg t="1713060996103" class="icon" viewBox="0 0 1024 1024" version="1.1" xmlns="http://www.w3.org/2000/svg" p-id="3485" xmlns:xlink="http://www.w3.org/1999/xlink" width="200" height="200"><path d="M694.72558771 514.13753742a179.40046197 179.40046197 0 1 0-179.40046196 178.60979124 178.99694725 178.99694725 0 0 0 179.40046196-178.60979124z" fill="#F4CA1C" p-id="3486"></path><path d="M1018.91694533 609.35610481a258.2548717 258.2548717 0 0 0-298.62270211-253.90890916 269.79321146 269.79321146 0 0 0-475.45484743-82.88410401 265.33273796 265.33273796 0 0 0-52.1406449 163.35802552A216.62196814 216.62196814 0 0 0 227.76636094 866.43860267h562.09054773a34.06972907 34.06972907 0 0 0 15.70980944-3.95880654A257.77501638 257.77501638 0 0 0 1018.91694533 609.35610481z m-258.19488981 188.82852879H227.76636094a148.4497926 148.4497926 0 1 1 0-296.8941323 34.04791746 34.04791746 0 0 0 9.2699327-1.42866022 34.04246456 34.04246456 0 0 0 26.46293135-38.339351 200.02333575 200.02333575 0 0 1 167.99844478-227.93128604A200.71585424 200.71585424 0 0 1 654.6631198 375.06673554a257.33878424 257.33878424 0 0 0-152.13595406 234.28936927 34.27148643 34.27148643 0 0 0 68.54297284 0 189.64646403 189.64646403 0 1 1 189.65191694 188.82852879z" fill="#595BB3" p-id="3487"></path></svg>