<?xml version="1.0" standalone="no"?><!DOCTYPE svg PUBLIC "-//W3C//DTD SVG 1.1//EN" "http://www.w3.org/Graphics/SVG/1.1/DTD/svg11.dtd"><svg t="1713060966855" class="icon" viewBox="0 0 1024 1024" version="1.1" xmlns="http://www.w3.org/2000/svg" p-id="2588" xmlns:xlink="http://www.w3.org/1999/xlink" width="200" height="200"><path d="M233.41115157 144.09154302H177.39747691a40.00976762 40.00976762 0 0 0-40.00976864 40.00976863v120.02930387h800.19536051v-120.02930387a40.00976762 40.00976762 0 0 0-40.00976762-40.00976863h-56.01367568" fill="#FF5252" p-id="2589"></path><path d="M137.38770827 456.16773349h800.19536051v120.02930388h-800.19536051z" fill="#FFD740" p-id="2590"></path><path d="M289.42482726 224.11107927a24.00586057 24.00586057 0 0 1-24.00586058-24.00586057v-112.02735035a24.00586057 24.00586057 0 0 1 48.01172115 0v112.02735035a24.00586057 24.00586057 0 0 1-24.00586057 24.00586057z" fill="#FFFFFF" p-id="2591"></path><path d="M289.42482726 232.11303279c-17.65230933 0-32.0078141-14.35550476-32.00781512-32.00781409v-112.02735035c0-17.65230933 14.35550476-32.0078141 32.00781512-32.00781511s32.0078141 14.35550476 32.00781409 32.00781511v112.02735035c0 17.65230933-14.35550476 32.0078141-32.00781409 32.00781409z m0-160.0390725c-8.81815263 0-16.00390705 7.16975035-16.00390705 16.00390806v112.02735035a16.01991111 16.01991111 0 0 0 32.00781409 0v-112.02735035c0-8.8341567-7.18575441-16.00390705-16.00390704-16.00390806z" fill="#263238" p-id="2592"></path><path d="M537.48538853 224.11107927a24.00586057 24.00586057 0 0 1-24.00586058-24.00586057v-112.02735035a24.00586057 24.00586057 0 0 1 48.01172115 0v112.02735035a24.00586057 24.00586057 0 0 1-24.00586057 24.00586057z" fill="#FFFFFF" p-id="2593"></path><path d="M537.48538853 232.11303279c-17.65230933 0-32.0078141-14.35550476-32.0078141-32.00781409v-112.02735035c0-17.65230933 14.35550476-32.0078141 32.0078141-32.00781511s32.0078141 14.35550476 32.00781409 32.00781511v112.02735035c0 17.65230933-14.35550476 32.0078141-32.00781409 32.00781409z m0-160.0390725c-8.81815263 0-16.00390705 7.16975035-16.00390705 16.00390806v112.02735035a16.01991111 16.01991111 0 0 0 32.00781409 0v-112.02735035a16.00390705 16.00390705 0 0 0-16.00390704-16.00390806z" fill="#263238" p-id="2594"></path><path d="M785.54595081 224.11107927a24.00586057 24.00586057 0 0 1-24.00586159-24.00586057v-112.02735035a24.00586057 24.00586057 0 0 1 48.01172216 0v112.02735035a24.00586057 24.00586057 0 0 1-24.00586057 24.00586057z" fill="#FFFFFF" p-id="2595"></path><path d="M785.54595081 232.11303279c-17.65230933 0-32.0078141-14.35550476-32.00781511-32.00781409v-112.02735035c0-17.65230933 14.35550476-32.0078141 32.00781511-32.00781511s32.0078141 14.35550476 32.0078141 32.00781511v112.02735035c0 17.65230933-14.35550476 32.0078141-32.0078141 32.00781409z m0-160.0390725a16.00390705 16.00390705 0 0 0-16.00390806 16.00390806v112.02735035a16.00390705 16.00390705 0 0 0 32.00781511 0v-112.02735035a16.00390705 16.00390705 0 0 0-16.00390705-16.00390806zM481.47171386 152.09349654h-136.03321194a8.00195352 8.00195352 0 0 1 0-16.00390705H481.47171386a8.00195352 8.00195352 0 0 1 0 16.00390705zM729.53227513 152.09349654H593.49906421a8.00195352 8.00195352 0 0 1 0-16.00390705h136.03321092a8.00195352 8.00195352 0 0 1 0 16.00390705z" fill="#263238" p-id="2596"></path><path d="M937.58306878 312.13256905h-800.19536051a8.00195352 8.00195352 0 0 1-8.00195352-8.00195353v-120.02930387c0-26.47046298 21.54125917-48.01172114 48.01172216-48.01172216h56.01367466a8.00195352 8.00195352 0 0 1 0 16.00390705H177.39747691c-17.65230933 0-32.0078141 14.35550476-32.00781511 32.00781511v112.02735035h784.19145346v-112.02735035c0-17.65230933-14.35550476-32.0078141-32.0078141-32.00781511h-56.01367568a8.00195352 8.00195352 0 0 1 0-16.00390705H897.57330116c26.47046298 0 48.01172114 21.54125917 48.01172114 48.01172216v120.02930387a8.00195352 8.00195352 0 0 1-8.00195352 8.00195353zM595.78762294 856.26541375H177.39747691c-26.47046298 0-48.01172114-21.54125917-48.01172216-48.01172115v-472.11526298a8.00195352 8.00195352 0 0 1 16.00390705 0v472.11526298c0 17.65230933 14.35550476 32.0078141 32.00781511 32.0078141h418.39014603a8.00195352 8.00195352 0 0 1 0 16.00390705z" fill="#263238" p-id="2597"></path><path d="M337.4365484 856.26541375a8.00195352 8.00195352 0 0 1-8.00195353-8.00195353v-512.1250306a8.00195352 8.00195352 0 0 1 16.00390705 0v512.1250306a8.00195352 8.00195352 0 0 1-8.00195352 8.00195353zM537.48538853 856.26541375a8.00195352 8.00195352 0 0 1-8.00195353-8.00195353v-512.1250306a8.00195352 8.00195352 0 0 1 16.00390705 0v512.1250306a8.00195352 8.00195352 0 0 1-8.00195352 8.00195353zM737.53422865 614.94249718a8.00195352 8.00195352 0 0 1-8.00195352-8.00195353V336.13842962a8.00195352 8.00195352 0 0 1 16.00390705 0v270.80211403a8.00195352 8.00195352 0 0 1-8.00195353 8.00195353zM937.58306878 635.05940791a8.00195352 8.00195352 0 0 1-8.00195352-8.00195353V336.13842962a8.00195352 8.00195352 0 0 1 16.00390704 0v290.91902476a8.00195352 8.00195352 0 0 1-8.00195352 8.00195353z" fill="#263238" p-id="2598"></path><path d="M937.58306878 464.16968702h-800.19536051a8.00195352 8.00195352 0 0 1 0-16.00390705h800.19536051a8.00195352 8.00195352 0 0 1 0 16.00390705zM937.58306878 584.19899089h-800.19536051a8.00195352 8.00195352 0 0 1 0-16.00390705h800.19536051a8.00195352 8.00195352 0 0 1 0 16.00390705zM628.35557418 704.22829578H137.38770827a8.00195352 8.00195352 0 0 1 0-16.00390807h490.96786591a8.00195352 8.00195352 0 0 1 0 16.00390807zM81.37403361 168.09740359H17.3584044a8.00195352 8.00195352 0 0 1 0-16.00390705h64.01562921a8.00195352 8.00195352 0 0 1 0 16.00390705z" fill="#263238" p-id="2599"></path><path d="M49.36621849 200.1052187a8.00195352 8.00195352 0 0 1-8.00195352-8.00195352v-64.01562921a8.00195352 8.00195352 0 0 1 16.00390806 0v64.01562921a8.00195352 8.00195352 0 0 1-8.00195454 8.00195352zM521.48148148 936.28495h-32.0078141a8.00195352 8.00195352 0 0 1 0-16.00390705h32.0078141a8.00195352 8.00195352 0 0 1 0 16.00390705zM457.46585227 936.28495h-240.05860774a8.00195352 8.00195352 0 0 1 0-16.00390705h240.05860774a8.00195352 8.00195352 0 0 1 0 16.00390705z" fill="#263238" p-id="2600"></path><path d="M817.55376491 816.25564613m-192.04688661 0a192.0468866 192.0468866 0 1 0 384.09377321 0 192.0468866 192.0468866 0 1 0-384.09377321 0Z" fill="#40C4FF" p-id="2601"></path><path d="M817.55376491 1016.30448625c-110.31493283 0-200.04884013-89.7339073-200.04884013-200.04884012s89.7339073-200.04884013 200.04884013-200.04884013 200.04884013 89.7339073 200.04884012 200.04884013-89.7339073 200.04884013-200.04884012 200.04884012z m0-384.0937732c-101.48077511 0-184.04493308 82.56415695-184.04493308 184.04493308s82.56415695 184.04493308 184.04493308 184.04493206 184.04493308-82.56415695 184.04493308-184.04493206-82.56415695-184.04493308-184.04493308-184.04493308z" fill="#263238" p-id="2602"></path><path d="M817.55376491 816.25564613m-144.03516546 0a144.03516444 144.03516444 0 1 0 288.0703299 0 144.03516444 144.03516444 0 1 0-288.0703299 0Z" fill="#FFFFFF" p-id="2603"></path><path d="M817.55376491 968.2927641c-83.82846578 0-152.03711797-68.20865219-152.03711899-152.03711797s68.20865219-152.03711797 152.03711899-152.03711899 152.03711797 68.20865219 152.03711796 152.03711899-68.20865219 152.03711797-152.03711796 152.03711797z m0-288.07032991c-75.01031314 0-136.03321092 61.02289778-136.03321092 136.03321194s61.02289778 136.03321092 136.03321092 136.03321092 136.03321092-61.02289778 136.03321092-136.03321092-61.02289778-136.03321092-136.03321092-136.03321194z" fill="#263238" p-id="2604"></path><path d="M817.55376491 840.2615067h-80.01953626a8.00195352 8.00195352 0 0 1 0-16.00390705h72.01758273v-88.02148978a8.00195352 8.00195352 0 0 1 16.00390705 0v96.02344331a8.00195352 8.00195352 0 0 1-8.00195352 8.00195352z" fill="#263238" p-id="2605"></path><path d="M185.39943043 56.07005324h-64.01562921a8.00195352 8.00195352 0 0 1 0-16.00390705h64.01562921a8.00195352 8.00195352 0 0 1 0 16.00390705z" fill="#263238" p-id="2606"></path><path d="M153.39161532 88.07786835a8.00195352 8.00195352 0 0 1-8.00195352-8.00195352v-64.01562921a8.00195352 8.00195352 0 0 1 16.00390806 0v64.01562921a8.00195352 8.00195352 0 0 1-8.00195454 8.00195352z" fill="#263238" p-id="2607"></path></svg>