<?xml version="1.0" standalone="no"?><!DOCTYPE svg PUBLIC "-//W3C//DTD SVG 1.1//EN" "http://www.w3.org/Graphics/SVG/1.1/DTD/svg11.dtd"><svg t="1713061006628" class="icon" viewBox="0 0 1024 1024" version="1.1" xmlns="http://www.w3.org/2000/svg" p-id="3777" xmlns:xlink="http://www.w3.org/1999/xlink" width="200" height="200"><path d="M930.40514402 260.97379259V156.38869866c0-23.1360198-18.75336521-41.85798221-41.85601954-41.8579822H51.79771671C28.69309971 114.53071645 9.93973449 133.25267886 9.93973449 156.38869866V260.97379259h920.46540953z" fill="#E6E9ED" p-id="3778"></path><path d="M786.93552139 825.78275925H9.93973449V198.21724075h920.46540953v437.97694495z" fill="#656D78" p-id="3779"></path><path d="M93.62625878 156.38869866c0 11.55230849-9.34822384 20.89856963-20.92997243 20.89856964-11.52090569 0-20.89660695-9.34626114-20.89660697-20.89856964S61.17538065 135.4606889 72.69628635 135.4606889c11.58174863 0 20.92997244 9.37766393 20.92997243 20.92800976z" fill="#ED5564" p-id="3780"></path><path d="M156.38281064 156.38869866c0 11.55230849-9.34626114 20.89856963-20.92800977 20.89856964-11.52286836 0-20.89856963-9.34626114-20.89856963-20.89856964S123.92996984 135.4606889 135.45283819 135.4606889c11.58371131 0 20.92997244 9.37766393 20.92997247 20.92800976z" fill="#FFCE54" p-id="3781"></path><path d="M219.13739981 156.38869866c0 11.55230849-9.34626114 20.89856963-20.92800978 20.89856964-11.52090569 0-20.89660695-9.34626114-20.89660695-20.89856964S186.68848435 135.4606889 198.20939003 135.4606889c11.58174863 0 20.92800978 9.37766393 20.92800978 20.92800976z" fill="#A0D468" p-id="3782"></path><path d="M742.13548849 281.87236223H114.55426856c-11.55230849 0-20.92800978 9.37570126-20.92800978 20.92800978s9.37570126 20.92997244 20.92800978 20.92997244h627.58121993c11.52090569 0 20.89660695-9.37766393 20.89660694-20.92997244s-9.37570126-20.92800978-20.89660694-20.92800978z" fill="#FC6E51" p-id="3783"></path><path d="M114.55426856 407.41490607h334.68132887c11.58174863 0 20.92800978-9.37570126 20.9280098-20.92997246 0-11.55230849-9.34626114-20.92800978-20.9280098-20.92800975H114.55426856c-11.55230849 0-20.92800978 9.37570126-20.92800978 20.92800975 0 11.55427118 9.37570126 20.92997244 20.92800978 20.92997246z" fill="#AC92EB" p-id="3784"></path><path d="M574.76440257 449.24344815H114.55426856c-11.55230849 0-20.92800978 9.37766393-20.92800978 20.92997243s9.37570126 20.89856963 20.92800978 20.89856964h460.21013401c11.57978597 0 20.89660695-9.34626114 20.89660693-20.89856964s-9.31485832-20.92997244-20.89660693-20.92997243z" fill="#48CFAD" p-id="3785"></path><path d="M114.55426856 574.75851453H407.40901804c11.55230849 0 20.92800978-9.37766393 20.92800977-20.92997245s-9.37570126-20.89856963-20.92800976-20.89856964H114.55426856c-11.55230849 0-20.92800978 9.34822384-20.92800978 20.89856964s9.37570126 20.92997244 20.92800978 20.92997245z" fill="#5D9CEC" p-id="3786"></path><path d="M613.74313969 666.28592779c8.45716909 0 16.42170663-5.17950087 19.61105445-13.57386437 4.04507438-10.81826783-1.47200669-22.89068536-12.25887171-26.9377224-40.26428964-15.10475131-46.45260577-53.68702797-46.45260576-54.08348843a20.9338978 20.9338978 0 0 0-23.77977741-17.62090141c-11.44436134 1.68397565-19.32057846 12.31775199-17.63464014 23.74837458 0.36898302 2.57503037 10.05086167 63.46115238 73.15873248 87.1192439 2.45334448 0.92049484 4.90276362 1.34835814 7.35610809 1.34835813zM951.18202776 909.46928355c0.98133779 0 2.02155585-0.09224576 3.0637366-0.24533445 11.46202543-1.68397565 19.30683974-12.31775199 17.65230423-23.74837459-0.36898302-2.57503037-10.05086167-63.46115238-73.17443387-87.11924389-10.84770797-4.07451451-22.86124522 1.41116374-26.96716254 12.22550621-4.04507438 10.81826783 1.47200669 22.89068536 12.2588717 26.93575976 40.26428964 15.10671397 46.45260577 53.68702797 46.5134487 54.0854511a20.88286823 20.88286823 0 0 0 20.65323518 17.86623585zM449.23559743 616.58313125H114.55426856c-11.55230849 0-20.92800978 9.37570126-20.92800978 20.92997244 0 11.55230849 9.37570126 20.92800978 20.92800978 20.92800978h334.68132887c11.58174863 0 20.92800978-9.37570126 20.9280098-20.92800978a20.91427105 20.91427105 0 0 0-20.9280098-20.92997244z" fill="#FFCE54" p-id="3787"></path><path d="M281.89591433 700.26965555H114.55426856c-11.55230849 0-20.92800978 9.37570126-20.92800978 20.92997244 0 11.55230849 9.37570126 20.89660695 20.92800978 20.89660696h167.34164577c11.55230849 0 20.92800978-9.34626114 20.92800978-20.89660696 0-11.55427118-9.37570126-20.92997244-20.92800978-20.92997244z" fill="#ED5564" p-id="3788"></path><path d="M993.16169588 742.09623495H532.92015907a20.88286823 20.88286823 0 0 1-20.89660696-20.89660696c0-11.55427118 9.34626114-20.92997244 20.89660696-20.92997244h460.24153681c11.52090569 0 20.89660695 9.37570126 20.89660695 20.92997244 0.00196267 11.55230849-9.37570126 20.89660695-20.89660695 20.89660696zM721.60590185 554.71763412a20.9338978 20.9338978 0 0 1-17.95651893-10.17451024l-63.18637781-105.47222329c-5.88213874-9.89777298-2.69475358-22.76899948 7.2344222-28.68254101a20.87894286 20.87894286 0 0 1 28.68057834 7.20105672l63.12357219 105.47222329c5.94494435 9.89777298 2.75755919 22.73759667-7.16965392 28.68254102a20.88875627 20.88875627 0 0 1-10.72602207 2.97345351zM804.64670587 554.71763412c-3.61721111 0-7.35610809-0.94993498-10.72602208-2.97345351-9.86637017-5.94494435-13.11459826-18.78476804-7.16965391-28.71394381l63.1235722-105.4408205a20.88090557 20.88090557 0 0 1 28.68254101-7.20105672c9.92917578 5.91354153 13.11459826 18.75336521 7.23049684 28.68254101l-63.12357217 105.47222329c-3.92142581 6.52589631-10.90855091 10.17451024-18.01736189 10.17451024zM912.38778215 666.28592779c-8.45913178 0-16.42563197-5.17950087-19.55021151-13.57386437-4.10591734-10.81826783 1.40920106-22.89068536 12.19410341-26.9377224 40.32709525-15.10475131 46.45653112-53.68702797 46.51737405-54.08348843 1.65453554-11.43062261 12.3157893-19.30683974 23.71697179-17.62090141 11.46202543 1.68397565 19.36572002 12.31775199 17.65034155 23.74837458-0.36898302 2.57503037-10.05086167 63.46115238-73.17639654 87.1192439a20.49425847 20.49425847 0 0 1-7.35218275 1.34835813zM574.76440257 909.46928355c-0.98133779 0-2.02351853-0.09224576-3.06569929-0.24533445-11.39921981-1.68397565-19.30487706-12.31775199-17.64837886-23.74837459 0.42982594-2.57503037 10.05086167-63.46115238 73.17443387-87.11924389 10.84770797-4.07451451 22.92012548 1.41116374 26.96519987 12.22550621 4.04703705 10.81826783-1.40920106 22.89068536-12.25690903 26.93575976-40.26625231 15.10671397-46.3937255 53.68702797-46.45456846 54.0854511-1.53088696 10.38844186-10.48068762 17.86623586-20.7140781 17.86623585z" fill="#FFCE54" p-id="3789"></path><path d="M930.28149547 679.34164579c0 127.10679628-47.80096389 230.12763777-167.24940004 230.12763776-119.44451077 0-167.24940005-103.0208415-167.24940003-230.12763778 0-127.07735614 62.20700268-188.26965555 167.24940003-188.26965555 105.04632271-0.00196267 167.24940005 61.19229942 167.24940003 188.26965557z" fill="#ED5564" p-id="3790"></path><path d="M742.13548849 908.33485705c6.67898503 0.73600334 13.66807279 1.13442648 20.89660694 1.1344265 7.23442222 0 14.21958462-0.39842314 20.89856964-1.1344265v-291.7517258h-41.79713929v291.7517258z" fill="#DA4453" p-id="3791"></path><path d="M601.85128832 616.58313125h322.3635769c-17.95651894-84.51281072-75.19598972-125.5131037-161.18276979-125.51310369-85.98089206 0-143.22232551 41.00225567-161.18080711 125.51310369z" fill="#DA4453" p-id="3792"></path></svg>