<?xml version="1.0" standalone="no"?><!DOCTYPE svg PUBLIC "-//W3C//DTD SVG 1.1//EN" "http://www.w3.org/Graphics/SVG/1.1/DTD/svg11.dtd"><svg t="1712809863374" class="icon" viewBox="0 0 1024 1024" version="1.1" xmlns="http://www.w3.org/2000/svg" p-id="4980" xmlns:xlink="http://www.w3.org/1999/xlink" width="128" height="128"><path d="M468.54037442 508.564672c-23.06577368-14.17754411-40.89676184-30.3726618-54.5290158-50.98462977-49.29423028-74.5411646-31.89947425-191.83307758 57.03735051-237.20121871 55.56506709-28.3005592 126.72543271-13.63225395 167.67672358 36.53444059 44.65926394 54.74713187 53.16579041 115.00169431 24.59258613 180.2183972-11.3965643 26.06486955-27.10092085 48.31270799-50.65745568 64.61688372-1.79945752 1.25416735-3.38079897 2.72645079-5.01666945 4.19873422-0.43623214 0.38170311-0.65434819 1.0360513-1.69039949 2.83550882 5.28931453 1.30869637 10.30598399 2.29021866 15.15906638 3.70797308 61.07249769 17.44928505 112.27524352 49.0215852 147.55551675 103.38701395 19.68497471 30.31813278 32.00853227 63.5263034 37.67954992 98.91563465 4.08967618 25.46505038 6.10724977 51.36633287 7.52500417 77.15855735 1.19963835 22.13878042-10.08786793 35.06215716-33.58987372 42.04187118-29.06396541 8.6155845-59.0549241 9.70616482-88.93682477 10.415042-115.11075235 2.83550883-230.27603371 3.7625021-345.33225703-1.79945751-17.88551718-0.87246424-35.93462141-4.30779224-53.38390646-8.67011351-25.57410841-6.43442386-34.40780897-20.23026486-33.64440275-46.45872147 0.98152229-34.08063487 4.30779224-67.77956664 13.95942805-100.66056316 24.81070219-84.35638743 79.01254389-140.4667447 161.9511769-168.98541994 5.28931453-1.85398655 10.63315809-3.65344405 16.03153065-5.1802565 5.01666945-1.3632254 10.14239693-2.34474767 17.61287211-4.08967619z" fill="#9bc6fc" p-id="4981"></path><path d="M334.45352457 202.60236438c-53.22031942 91.4996885-50.3848106 181.85426768 6.16177878 272.09978881-119.41854459 58.56416298-172.25716091 161.07871267-187.0890532 289.00378372-22.08425141 0.49076115-44.05944476 1.3632254-63.9080065-8.67011351-6.81612697-3.435328-14.72283426-11.88732544-15.43171147-18.75798143-2.3992767-23.1203027-4.52590832-46.84042456-1.6903995-69.74261121 7.96123631-64.72594176 36.75255665-119.30948656 86.75566414-161.84211888 23.88370891-20.3393229 51.14821682-34.8440411 81.24823353-43.8413287 3.27174094-0.98152229 6.48895288-2.01757359 11.56015136-3.59891505-35.06215716-19.41232962-57.74622773-47.11306965-68.59750188-84.08374234-10.90580315-37.18878877-7.03424304-73.1779392 11.23297725-107.09498703 28.68226231-53.43843547 86.75566412-79.50330503 139.75786749-63.47177438zM751.65502442 474.64762418c58.12793084-91.00892736 57.85528576-182.07238375 5.94366273-274.88076863 26.9373338-8.12482335 53.16579041-6.21630781 78.08555062 6.27083682 46.67683752 23.39294778 72.41453298 62.10854899 76.28609309 113.69299795 4.03514716 53.22031942-15.10453738 97.22523516-59.38209819 128.7975353-4.14420521 2.94456685-8.94275859 5.07119847-14.39566018 8.12482335 2.61739275 1.3632254 4.41685028 2.61739275 6.37989485 3.27174095 98.31581548 33.04458357 153.44465044 103.38701394 172.69339303 203.12058382 4.19873422 21.92066435 3.1081539 45.15002508 2.50833472 67.67050861-0.38170311 15.10453738-10.74221612 24.91976021-25.19240529 27.70074003-18.04910422 3.435328-36.47991157 4.85308241-55.94677022 7.25235911-13.30507985-130.26981874-67.01616042-232.13002025-186.97999516-291.02135731z" fill="#FEC963" p-id="4982"></path><path d="M826.57789212 714.52076466c-6.92518502-43.1869805-22.13878042-83.10222007-45.2590831-118.7641964-35.28027322-54.41995777-85.06526463-92.64479784-151.5361349-116.36491971 14.77736328-15.8679436 26.99186282-35.06215716 37.02520172-57.96434378 35.33480223-80.7574724 25.02881825-156.28015927-30.64530687-224.49595804-52.29332615-64.07159356-142.86602138-83.70203923-215.44414141-46.73136654-49.29423028 25.13787629-84.51997448 69.57902415-99.18827974 125.19862028-15.5407695 59.00039509-5.5074306 123.39916275 26.82827578 172.31168991 7.79764926 11.83279643 16.9039949 22.68407057 27.42809495 32.82646751-94.9350165 35.11668617-157.58885565 102.40549167-186.32564698 200.12148796-9.97880988 33.86251881-15.05000835 70.0697853-16.41323376 117.45550003-1.19963835 41.33299398 17.01305292 66.14369615 55.72865414 75.84986098 24.31994104 6.10724977 44.60473492 9.37899072 63.74441948 10.30598398 68.92467596 3.32626996 137.90388095 4.4713793 202.90246776 4.47137929 65.70746404 0 127.32525187-1.19963835 180.43651327-2.45380572 37.24331779-0.92699326 70.7786625-2.50833473 104.64118131-12.54167363 47.6583598-14.12301509 56.00129922-46.56777948 54.63807383-71.32395265-1.25416735-24.31994104-3.435328-56.16488628-8.56105548-87.90077347z m-59.98191736 112.11165648c-28.13697215 8.34293942-57.03735052 9.65163579-91.93592063 10.52410004-104.85929738 2.56286375-242.81770734 4.63496635-379.79459503-1.96304457-15.8679436-0.76340622-33.09911259-3.59891505-54.2018417-8.88822955-15.37718246-3.87156013-19.19421356-7.41594614-18.6489234-26.77374677 1.25416735-42.96886445 5.72554666-75.35909983 14.45018919-105.02288442 25.1924053-85.50149677 78.63084077-141.28467992 163.42346034-170.45770338 5.88913371-2.01757359 11.17844823-3.81703111 16.35870473-5.28931453 3.32626996-0.92699326 6.70706893-1.69039949 10.74221611-2.61739275 2.29021866-0.54529015 4.85308241-1.09058032 7.63406222-1.74492851 9.70616482-2.29021866 17.01305292-10.14239693 18.64892341-19.95761979s-2.89003784-19.63044568-11.39656432-24.81070219c-23.28388974-14.28660214-40.02429759-29.88190066-52.67502925-48.96705618-24.75617318-37.40690483-32.33570636-87.02830922-20.28479388-132.72362445 11.01486119-41.87828413 37.29784681-75.25004179 73.99587443-93.95349421 17.55834309-8.94275859 36.64349862-13.25055084 55.61959612-13.25055084 37.35237582 0 74.43210655 16.63134982 99.46092482 47.2766567 43.73227068 53.54749352 51.47539091 110.36672797 23.72012187 173.78397334-12.1054415 27.59168199-27.15544987 47.00401161-47.49477277 61.12702671-2.94456685 2.0721026-5.28931453 4.14420521-7.19783009 5.83460468l-0.7088772 0.65434819c-3.54438603 3.16268292-5.34384355 6.54348189-6.21630779 8.12482336l-0.54529017 0.92699327c-3.87156013 6.70706893-4.41685028 14.8318923-1.36322539 21.97519337s9.26993269 12.37808658 16.79493687 14.23207311c1.96304456 0.49076115 3.87156013 0.92699326 5.78007567 1.36322539 3.435328 0.81793525 6.76159796 1.52681244 10.0333389 2.50833473 67.45239254 19.3032716 116.25586168 53.32937745 149.19138722 104.04136215 19.35780061 29.88190066 32.17211931 63.47177438 38.00672401 99.84262791 4.74402437 29.50019755 6.81612697 59.70927229 8.07029434 82.72051697 0.59981916 7.85217828 0.98152229 15.37718246-19.46685863 21.48443222z" fill="#474747" p-id="4983"></path><path d="M309.58829336 488.11629109c6.21630781-3.05362488 10.90580315-8.6155845 12.81431872-15.32265345s0.87246424-13.85037001-2.78097981-19.73950372c-52.07521008-83.15674908-53.92919663-163.85969246-5.72554665-246.74379647 3.7625021-6.48895288 4.36232126-14.34113115 1.63587046-21.32084517a24.54351001 24.54351001 0 0 0-15.75888555-14.50471821c-64.83499977-19.57591667-134.14137885 11.3965643-168.49465882 75.30457081-21.48443221 39.96976858-25.9012825 82.22975582-13.14149279 125.6348524 7.96123631 27.15544987 21.64801927 50.3848106 40.95129085 69.46996612a244.20274434 244.20274434 0 0 0-57.52811166 36.47991157c-54.36542874 46.29513441-86.37396103 106.0044067-95.20766159 177.54647543-3.05362488 24.8652312-0.98152229 49.78499142 1.63587048 75.2500418 1.74492851 17.12211095 16.14058867 31.7904162 28.79132034 38.11578204 19.57591667 9.86975186 39.86071054 11.56015134 58.83680804 11.56015134 4.96214043 0 9.81522284-0.10905804 14.55924722-0.21811605l2.12663161-0.05452902a24.53260421 24.53260421 0 0 0 23.82917991-21.70254828c15.21359541-131.74210217 71.97830084-220.02457873 173.45679924-269.75504114z m-219.37023054 242.65412028c-11.72373839-0.27264508-22.19330942-1.63587047-31.29965507-6.2163078-0.65434819-0.38170311-1.69039949-1.30869637-2.39927669-2.07210259-2.23568964-22.35689648-3.81703111-42.47810329-1.47228344-61.50872984 7.25235911-58.94586608 33.58987373-108.13103831 78.3036667-146.19229133 20.83008402-17.72193014 45.20455409-30.86342294 72.41453297-39.04277531 2.23568964-0.65434819 4.41685028-1.3632254 7.19783008-2.23568966l4.58043733-1.41775441a24.5107926 24.5107926 0 1 0 4.58043733-44.87737999c-29.3366105-16.24964671-47.9855339-38.9882463-56.92829248-69.52449515-9.10634563-31.02700999-6.05272075-59.98191738 9.26993267-88.60965067 17.55834309-32.71740947 48.09459194-52.83861631 80.26671126-55.01977693-36.15273747 80.59388535-32.7719385 161.84211888 10.03333891 242.32694619-97.71599631 56.11035725-155.08052092 146.30134937-174.54737957 274.39000749zM993.32762243 644.99626953c-19.03062652-98.80657662-70.56054644-168.4401298-153.33559242-207.48290511 35.71650535-34.46233798 52.40238417-79.99406616 48.42176602-133.05079854-4.52590832-60.36362048-35.60744731-106.65875491-89.75475999-133.81420477-30.48171983-15.26812442-62.81742619-17.88551718-96.18918386-7.79764926-7.08877205 2.12663162-12.86884774 7.41594614-15.64982755 14.28660215s-2.29021866 14.66830525 1.3632254 21.15725813c48.42176602 86.6466061 46.73136654 168.33107176-5.23478552 249.68836332-3.7625021 5.88913371-4.85308241 13.08696379-2.94456685 19.79403275s6.54348189 12.32355758 12.81431872 15.43171146c103.16889789 50.65745567 159.87907432 139.48522241 173.45679925 271.60902768 0.65434819 6.54348189 3.98061815 12.59620265 9.10634563 16.68587884 4.36232126 3.48985702 9.76069383 5.34384355 15.26812442 5.34384354 0.98152229 0 2.01757359-0.05452902 3.05362489-0.16358705 5.83460469-0.70887721 11.56015134-1.3632254 17.23116899-1.96304457 13.19602183-1.47228343 26.82827578-2.94456685 40.35147169-5.5074306 26.77374675-5.12572748 44.49567688-25.24693432 45.09549607-51.20274583l0.16358705-6.54348189c0.49076115-21.64801927 1.09058032-44.00491575-3.21721194-66.47087025z m-45.9134313 65.10764485l-0.16358705 6.65253994c-0.05452902 1.41775441-0.05452902 3.21721193-5.28931453 4.19873421-9.59710678 1.85398655-19.57591667 3.05362488-29.99095869 4.25326323-18.43080733-127.10713582-75.68627393-217.02548286-174.27473448-273.62660126 42.85980642-79.55783405 45.91343129-161.89664789 9.10634564-245.43510011 10.14239693 0.70887721 20.06667782 3.48985702 29.82737164 8.39746845 38.9882463 19.52138765 59.54568525 50.16669453 62.8174262 93.62632011 3.435328 45.91343129-12.65073166 80.92105944-49.18517226 106.98592899-1.41775441 0.98152229-3.70797307 2.18116065-6.32536583 3.59891505-1.85398655 0.98152229-3.7625021 1.96304456-5.78007567 3.1081539a24.52715131 24.52715131 0 0 0 0.70887721 43.18698051c0.59981916 0.3271741 1.14510934 0.59981916 1.63587046 0.92699326 1.96304456 1.09058032 4.68949535 2.67192177 8.23388139 3.81703112 86.9737802 29.22755247 138.12199701 89.59117295 156.3892173 184.52618945 3.32626996 17.17663997 2.83550883 35.93462141 2.29021867 55.78318315z" fill="#474747" p-id="4984"></path></svg>