<?xml version="1.0" standalone="no"?><!DOCTYPE svg PUBLIC "-//W3C//DTD SVG 1.1//EN" "http://www.w3.org/Graphics/SVG/1.1/DTD/svg11.dtd"><svg t="1713060974893" class="icon" viewBox="0 0 1072 1024" version="1.1" xmlns="http://www.w3.org/2000/svg" p-id="2901" xmlns:xlink="http://www.w3.org/1999/xlink" width="209.375" height="200"><path d="M450.670202 636.342857a266.24 266.24 0 1 0 532.48 0 266.24 266.24 0 0 0-532.48 0z" fill="#00C3A6" p-id="2902"></path><path d="M1072.872107 452.412952A452.266667 452.266667 0 0 0 620.60544 0.146286 452.412952 452.412952 0 0 0 185.356678 329.142857a357.083429 357.083429 0 0 0-83.236571 563.004953l-61.927619 107.129904 323.584-0.097524a356.10819 356.10819 0 0 0 235.812571-94.939428c4.144762 0.24381 8.240762 0.341333 12.434286 0.438857l409.892571 0.097524-78.409143-135.801905A450.706286 450.706286 0 0 0 1072.872107 452.412952zM363.142583 930.523429l-203.922286 0.097523L161.512107 926.47619l26.087619-45.202285-36.473905-37.205334a287.061333 287.061333 0 0 1-82.407619-201.776761 288.182857 288.182857 0 0 1 100.498286-218.843429c-0.633905 9.557333-0.975238 19.309714-0.975238 28.964571 0 209.822476 142.921143 386.29181 336.749714 437.394286a286.329905 286.329905 0 0 1-141.897143 40.716191z m293.839238-94.598096h-44.227048a376.100571 376.100571 0 0 1-146.090666-32.085333 384.731429 384.731429 0 0 1-119.612953-82.602667 382.147048 382.147048 0 0 1-110.055619-268.824381 378.88 378.88 0 0 1 30.037334-149.308952l3.218285-7.314286A381.318095 381.318095 0 0 1 349.24544 181.101714a381.70819 381.70819 0 0 1 271.311238-112.444952 381.952 381.952 0 0 1 271.311238 112.444952 381.70819 381.70819 0 0 1 112.444953 271.311238c0 51.2-9.898667 100.742095-29.452191 147.407238a381.952 381.952 0 0 1-80.213333 120.978286l-36.473905 37.254095 26.038857 45.153524 18.919619 32.670476h-246.247619z" fill="#000000" p-id="2903"></path><path d="M726.662583 547.986286a34.328381 34.328381 0 0 0-47.396572 10.386285 70.217143 70.217143 0 0 1-118.442666 0 34.328381 34.328381 0 0 0-57.782857 37.059048 138.24 138.24 0 0 0 117.028571 64.024381c47.640381 0 91.282286-23.893333 117.028571-64.073143a34.328381 34.328381 0 0 0-10.386285-47.396571z" fill="#000000" p-id="2904"></path></svg>