<?xml version="1.0" standalone="no"?><!DOCTYPE svg PUBLIC "-//W3C//DTD SVG 1.1//EN" "http://www.w3.org/Graphics/SVG/1.1/DTD/svg11.dtd"><svg t="1713061672479" class="icon" viewBox="0 0 1024 1024" version="1.1" xmlns="http://www.w3.org/2000/svg" p-id="3937" xmlns:xlink="http://www.w3.org/1999/xlink" width="200" height="200"><path d="M847.1148827 671.59961311H672.1789839v175.78791466c0 58.48236944 28.28692694 110.11453127 72.04646212 142.04808616 29.10486218 21.26631616 63.93527102-10.87172253 102.92351731-10.87172254 96.89124493 0 107.89929001-59.02765959 129.7790576-131.17636362 10.22419047-33.73982852 35.98915043-69.01328562 18.19905902-96.31187414a175.68567277 175.68567277 0 0 0-148.01219725-79.47604052zM489.26821654 671.59961311h-176.06055975C215.73704106 671.59961311 137.1130164 749.88283142 137.1130164 846.26286683c0 67.27517324 37.48869836 125.48489759 92.80156875 155.06688867 24.77662155 13.25736697 29.82055551-25.2196698 59.98191739-25.2196698 97.57285763 0 156.32787216-32.47884503 156.32787216-129.84721887 28.69589456-56.57385389 43.04384185-99.03832494 43.04384184-127.32525189v-47.37208247zM847.1148827 137.1130164a175.58343087 175.58343087 0 0 0-176.06055975 175.82199532v175.78791466h55.4151123c26.68513711 0 60.90209452-10.42867427 102.65087223-31.35418407 97.91366399-0.78385461 125.92794586-53.54067738 156.9413236-144.43373059 13.12104443-38.37479487 23.31115426-78.45362148 0-108.274177A175.68567277 175.68567277 0 0 0 847.1148827 137.1130164zM313.20765679 137.1130164A175.58343087 175.58343087 0 0 0 137.1130164 312.93501172a175.58343087 175.58343087 0 0 0 176.09464039 175.78791466h176.06055975v-175.20854387C488.48436195 215.77112169 409.75809538 137.1130164 313.20765679 137.1130164z" fill="#FFCB01" p-id="3938"></path><path d="M535.85644441 535.27707362h243.09716855c135.19787854 0 244.25591014 107.7970481 244.25591013 242.82452345 0 132.26694394-103.57104939 240.60928219-234.84965491 244.97160348l-8.24751364 0.13632254a243.7447006 243.7447006 0 0 1-244.1195876-235.73575143l-0.13632253-8.24751362v-243.94918442z m-46.58822787 0v242.82452345a243.67653933 243.67653933 0 0 1-235.97431585 243.84694253l-8.24751365 0.13632253A243.7447006 243.7447006 0 0 1 0.79047691 778.10159707c0-131.17636362 104.62754906-238.39404093 236.0083965-242.68820092l8.24751363-0.13632253h244.2218295z m289.68539642 68.16126975H604.01771415v175.78791467A175.58343087 175.58343087 0 0 0 780.11235454 955.04825334C877.00359949 955.04825334 955.04825334 876.11750297 955.04825334 778.10159707c0-97.06164811-78.21505704-174.66325371-176.09464038-174.6632537z m-357.84666617 0H245.04638704C147.57577132 603.43834337 68.95174666 681.72156166 68.95174666 778.10159707a175.58343087 175.58343087 0 0 0 176.09464038 175.82199532 175.58343087 175.58343087 0 0 0 176.06055975-175.82199532v-174.6632537zM245.04638704 0.79047691c131.31268617 0 238.63260538 104.52530715 244.01734569 235.73575143l0.20448381 8.24751362v243.94918442H245.04638704A243.7447006 243.7447006 0 0 1 0.79047691 244.8078226a243.67653933 243.67653933 0 0 1 236.0083965-243.84694252L245.04638704 0.79047691z m533.90722592 0A243.7447006 243.7447006 0 0 1 1023.20952309 244.77374196c0 131.14228298-104.62754906 238.3599603-236.0083965 243.74470062l-8.24751363 0.2044838h-244.2218295V244.8078226a243.67653933 243.67653933 0 0 1 235.97431585-243.84694252L778.95361296 0.79047691zM245.04638704 68.95174666A175.58343087 175.58343087 0 0 0 68.95174666 244.77374196a175.58343087 175.58343087 0 0 0 176.09464038 175.78791467h176.06055975V245.35311276C420.32309219 147.60985196 341.59682564 68.95174666 245.04638704 68.95174666z m533.90722592 0a175.58343087 175.58343087 0 0 0-176.06055975 175.8219953v175.78791467h175.51526958C876.28790615 419.7437214 955.04825334 341.08561611 955.04825334 244.8078226A175.58343087 175.58343087 0 0 0 778.95361296 68.95174666z" fill="#333333" p-id="3939"></path></svg>