<?xml version="1.0" standalone="no"?><!DOCTYPE svg PUBLIC "-//W3C//DTD SVG 1.1//EN" "http://www.w3.org/Graphics/SVG/1.1/DTD/svg11.dtd"><svg t="1713060999637" class="icon" viewBox="0 0 1080 1024" version="1.1" xmlns="http://www.w3.org/2000/svg" p-id="3632" xmlns:xlink="http://www.w3.org/1999/xlink" width="210.9375" height="200"><path d="M973.365879 1023.989272H106.503295v-8.506961-864.094872c0-12.047059-0.085821-24.094118-0.407648-36.141176-0.118003-4.215934 1.23367-5.728521 5.55688-5.664156 13.677649 0.214551 27.376753 0.182369 41.054403 0 3.958473 0 5.664156 1.23367 5.288691 5.256508-0.214551 2.231334 0 4.494851 0 6.736913v842.028264c0 10.395013-1.072757 9.311529 9.04334 9.311529h754.834592V110.257944h51.492326z" fill="" p-id="3633"></path><path d="M0 0h1080.126636v136.293751h-50.784307v-84.640511H51.224137v84.608328H0z" fill="" p-id="3634"></path><path d="M513.721775 514.858897h-7.627301c-32.268524 0-64.537049 0.182369-96.805573-0.096548-18.955613-0.160914-31.109947-17.325022-24.973779-34.532042 3.808287-10.727568 13.441643-17.099743 26.411273-17.164108 24.501765-0.118003 49.014258 0 73.516023 0h7.831125c-1.555497-2.703347-2.542434-4.602127-3.690284-6.436541q-35.304426-54.850055-70.651762-109.678655c-4.205207-6.500906-7.326929-13.237819-6.114714-21.251312a26.02508 26.02508 0 0 1 19.921093-21.626777c10.116097-2.467341 20.736389 1.523315 27.237296 10.974302 6.833461 9.912273 13.151998 20.189283 19.663632 30.316107q28.342235 44.058122 56.663014 88.116243c1.394584 2.145514 2.896443 4.291027 4.859588 7.187471 1.94169-2.82135 3.454277-4.902499 4.838133-7.05874l74.663873-115.857734c7.691666-11.918328 18.462144-16.617003 30.03719-13.334367 16.391724 4.645037 24.072663 21.959332 16.091352 36.988654-3.540097 6.640365-7.916945 12.873082-12.004148 19.213075q-30.83103 47.898591-61.683516 95.797182c-1.169305 1.823687-2.209879 3.722466-3.915562 6.629637h7.605845c24.673406 0 49.421906-0.107276 74.138223 0 15.018595 0.096548 25.992897 9.418805 27.34457 22.774626 1.652045 16.338086-9.472443 28.792792-26.497093 28.964434-30.219559 0.225279-60.449845 0.075093-90.669404 0.075093h-13.677649v43.500288c2.402975 0.139458 4.752313 0.386192 7.10165 0.39692h91.903075a66.811293 66.811293 0 0 1 7.337656 0.300372c15.823163 1.834414 25.295605 12.401069 24.609041 27.323115-0.590016 14.16039-11.542863 24.179938-27.054926 24.179939-31.850149 0.160914-63.711026 0.053638-95.571903 0.053638h-8.700058v101.53643c0 8.410413-2.306427 15.780252-8.828788 21.315678-8.206589 6.962192-17.550301 8.700058-27.408937 4.291027-10.030276-4.516306-15.39406-12.637075-15.39406-23.707925-0.139458-31.646325-0.064365-63.292651-0.075093-94.960432v-7.949128c-2.928626-0.171641-5.492515-0.461285-8.056403-0.461285-32.064701 0-64.129401 0.128731-96.194102-0.085821-19.309622-0.118003-31.528322-16.413179-25.746163-33.877659 3.057357-9.290074 9.590446-15.018595 19.191619-16.971013a61.147137 61.147137 0 0 1 11.564318-0.933298q45.656529-0.107276 91.291604 0h7.573662z" fill="#D7A301" p-id="3635"></path><path d="M263.136515 216.353591v-50.913038h553.70342v50.913038zM471.959353 880.947881c-12.250883 0-24.501765-0.128731-36.741921 0.064366-3.979928 0.064365-5.363784-1.265853-5.363784-5.256509 0.171641-13.881473 0.139458-27.773673 0-41.655146 0-3.625918 1.222943-5.041957 4.977592-5.020502q37.353392 0.160914 74.717511 0c3.379184 0 4.72013 1.169305 4.687947 4.634309-0.118003 14.085297-0.171641 28.170593 0 42.255891 0.064365 4.291027-1.909507 5.063412-5.578335 5.020501-12.197245-0.096548-24.469583-0.04291-36.69901-0.04291zM607.427081 880.947881c-11.800325 0-23.68647-0.225279-35.518978 0.107276-4.977592 0.139458-6.275627-1.641318-6.179079-6.339993 0.257462-13.259274 0.193096-26.540003 0-39.810005 0-3.990655 0.847478-5.889435 5.363784-5.857252 24.501765 0.182369 49.00353 0.128731 73.505296 0 3.711739 0 5.610518 0.826023 5.55688 5.063412q-0.268189 20.822209 0 41.655147c0 4.065748-1.523315 5.267236-5.363784 5.213598-12.454706-0.150186-24.909413-0.032183-37.364119-0.032183zM743.924656 880.947881c-12.250883 0-24.501765-0.118003-36.752648 0.064366-3.915562 0-5.417422-1.180032-5.363784-5.235054 0.182369-13.881473 0.150186-27.762946 0-41.644418 0-3.636646 1.169305-5.063412 4.923953-5.052685q37.364119 0.160914 74.728239 0c3.947745 0 4.784495 1.780776 4.752313 5.224326-0.096548 13.688377-0.160914 27.366026 0 41.043675 0.064365 4.194479-1.255125 5.760704-5.589063 5.674883-12.154335-0.225279-24.448127-0.075093-36.69901-0.075093zM335.944518 880.947881c-12.036331 0-24.08339-0.107276-36.119721 0.064366-3.958473 0-6.007438-0.826023-5.943073-5.363784 0.203824-13.881473 0.150186-27.752218 0-41.633692 0-3.679556 1.340946-4.977592 5.03123-4.956136q37.042292 0.160914 74.073857 0c4.01211 0 5.363784 1.340946 5.267235 5.310146-0.182369 13.666922-0.203824 27.344571 0 41.011492 0.064365 4.291027-1.351674 5.707066-5.621245 5.631974-12.197245-0.203824-24.448127-0.064365-36.688283-0.064366z" fill="" p-id="3636"></path></svg>