<?xml version="1.0" standalone="no"?><!DOCTYPE svg PUBLIC "-//W3C//DTD SVG 1.1//EN" "http://www.w3.org/Graphics/SVG/1.1/DTD/svg11.dtd"><svg t="1713060946436" class="icon" viewBox="0 0 1024 1024" version="1.1" xmlns="http://www.w3.org/2000/svg" p-id="2298" xmlns:xlink="http://www.w3.org/1999/xlink" width="200" height="200"><path d="M2.36777139 2.36777139m127.40805715 0l764.44834292 0q127.40805714 0 127.40805715 127.40805715l0 764.44834292q0 127.40805714-127.40805715 127.40805715l-764.44834292 0q-127.40805714 0-127.40805715-127.40805715l0-764.44834292q0-127.40805714 127.40805715-127.40805715Z" fill="#33ADFF" p-id="2299"></path><path d="M404.21278365 771.78502853l-1.72000878 1.52889671 2.99408936 4.20446588c21.78677778 29.04903702 53.82990415 47.52320532 89.31304807 51.98248731l8.2815237 0.76444835 8.28152372 0.25481611c42.1083629 0 80.90411631-19.55713678 105.43016731-51.28174301l4.58669002-6.37040287-217.1670334-1.08296848zM511.36295972 193.47985711c92.62565755 0 175.50459874 42.42688303 220.9255711 113.90280309 58.54400227 91.47898503 41.34391457 209.01291778-41.59873066 280.87106201a43.95577971 43.95577971 0 0 0-22.16900195 31.53349414l-0.38222418 5.92447464v58.16177812l-0.31852012 5.73336258c-2.80297726 27.77495646-26.30976383 49.37062216-57.33362574 51.85507924l-6.05188269 0.1911121h-190.47504545l-6.24299482-0.25481613c-30.64163776-2.54816115-54.33953641-23.95271476-57.01510556-52.10989535l-0.25481613-5.5422505v-57.77955394L350.06435933 620.29684859A50.1987745 50.1987745 0 0 0 327.25831714 583.9855523a213.66331185 213.66331185 0 0 1-69.75591133-147.47482616L257.18388569 424.98029696l0.25481611-13.25043793c4.6503941-97.91309193 81.60486062-184.74168286 187.28984402-210.66922251C471.35682973 196.21913033 493.2710156 193.47985711 511.36295972 193.47985711z m-4.2044659 84.9811741c-9.10967609 0-19.11120856 4.84150618-24.20753084 11.02079699l-1.91112088 2.67556915c-7.45337137 10.19264458-7.45337137 20.00306496-0.50963223 29.62237332 10.4474607 9.55560431 16.49934341 13.377846 26.37346784 14.14229434l4.45928201 0.12740805c50.26247856 0 93.64492202 36.43870435 97.33975568 79.31151559l0.2548161 5.86077061c0 11.84894931 4.7140981 21.27714554 15.607487 28.0297726 1.40148862 1.27408056 3.94964978 2.03852891 7.32596329 2.42075307l3.63112963 0.25481609h6.81633104c4.6503941 0 6.88003509-0.44592821 9.10967609-1.91112084l1.65630473-1.27408057a30.13200552 30.13200552 0 0 0 15.03415076-27.52014035c0-37.77648896-16.6904555-75.29816178-45.35726836-101.41681346-28.98533301-26.43717184-70.39295159-41.34391457-115.62281186-41.34391459z" fill="#FFFFFF" p-id="2300"></path></svg>